[img]http://img529.imageshack.us/img529/1267/ytri.jpg[/img]
[code]
Info:
Thx Hive

CM8 Doing It Right The First Time
with whats available 

Why download a touched up rip of a rip BRrip
Get the real deal BDRip
Enjoy

Source US Bluray

Video: 720x400 @bitrate 2000 2pass
Audio: DTS to AC3 5.1 @448
Sample: yes included
Subs: yes in srt
 
http://www.imdb.com/title/tt1287468/

General
Complete name                    : Cats.and.Dogs.2.2010.BDRip.XVID.AC3.HQ.Hive-CM8.avi
Format                           : AVI
Format/Info                      : Audio Video Interleave
File size                        : 1.41 GiB
Duration                         : 1h 22mn
Overall bit rate                 : 2 460 Kbps
Writing application              : Nandub v1.0rc2
Writing library                  : Nandub build 1853/release

Video
ID                               : 0
Format                           : MPEG-4 Visual
Format profile                   : Advanced Simple@L5
Format settings, BVOP            : Yes
Format settings, QPel            : Yes
Format settings, GMC             : No warppoints
Format settings, Matrix          : Default (H.263)
Muxing mode                      : Packed bitstream
Codec ID                         : XVID
Codec ID/Hint                    : XviD
Duration                         : 1h 22mn
Bit rate                         : 2 003 Kbps
Width                            : 720 pixels
Height                           : 400 pixels
Display aspect ratio             : 16:9
Frame rate                       : 23.976 fps
Color space                      : YUV
Chroma subsampling               : 4:2:0
Bit depth                        : 8 bits
Scan type                        : Progressive
Bits/(Pixel*Frame)               : 0.290
Stream size                      : 1.15 GiB (81%)
Writing library                  : XviD 1.2.1 (UTC 2008-12-04)

Audio
ID                               : 1
Format                           : AC-3
Format/Info                      : Audio Coding 3
Mode extension                   : CM (complete main)
Codec ID                         : 2000
Duration                         : 1h 22mn
Bit rate mode                    : Constant
Bit rate                         : 448 Kbps
Channel(s)                       : 6 channels
Channel positions                : Front: L C R, Side: L R, LFE
Sampling rate                    : 48.0 KHz
Bit depth                        : 16 bits
Stream size                      : 264 MiB (18%)
Alignment                        : Split accross interleaves
Interleave, duration             : 42 ms (1.00 video frame)
Interleave, preload duration     : 500 ms

Cast:
James Marsden ... Diggs (voice)
Nick Nolte ... Butch (voice)
Christina Applegate ... Catherine (voice)
Katt Williams ... Seamus (voice)
Bette Midler ... Kitty Galore (voice)
Neil Patrick Harris ... Lou (voice)
Sean Hayes ... Mr. Tinkles (voice)
Wallace Shawn ... Calico (voice)
Roger Moore ... Tab Lazenby (voice)
Joe Pantoliano ... Peek (voice)
Michael Clarke Duncan ... Sam (voice)
Chris O'Donnell ... Shane
Jack McBrayer ... Chuck
Fred Armisen ... Friedrich
Kiernan Shipka ... Little Girl


Plot:
In the age-old battle between cats and dogs, one crazed feline has taken things a paw too far. Kitty Galore, formerly an agent for cat spy organization MEOWS, has gone rogue and hatched a diabolical plan to not only bring her canine enemies to heel, but take down her former kitty comrades and make the world her scratching post. Faced with this unprecedented threat, cats and dogs will be forced to join forces for the first time in history in an unlikely alliance to save themselves -- and their humans.

Greetz

iNK,LUSi,,MAGNET,CLASSiFiED,KaN1vE,LEGi0N,IMAGiNE,ViSiON,
MEMORY100,goldadvance,SAFC,Unevano,Pinnz,Wayne,Mr Hive
and all P2P groups 
Great Work Guys 
[/code]
Screens:
[img]http://img716.imageshack.us/img716/5605/cad1.png[/img]
 [img]http://img202.imageshack.us/img202/3525/cad3.png[/img]
[img]http://img602.imageshack.us/img602/3655/cad4.png[/img]
[img]http://img202.imageshack.us/img202/3525/cad3.png[/img]